<svg width="224" height="31" viewBox="0 0 224 31" fill="none" xmlns="http://www.w3.org/2000/svg">
<g clip-path="url(#clip0_964_15221)">
<path d="M65.6569 11.2312L59.4468 1.64624V19.3123H65.6569V11.2312Z" fill="#00902A"/>
<path d="M77.7212 11.2312L83.9198 1.64624V19.3123H77.7212V11.2312Z" fill="#00902A"/>
<path d="M83.9199 0.119507L71.6833 18.7154L59.4468 0.119507H65.2207L71.5456 9.97992L77.859 0.119507H83.9199Z" fill="#00902A"/>
<path d="M91.5189 19.3123H84.7808L95.7087 0.119507H97.706L108.634 19.3123H101.896L96.7074 9.42893L91.5189 19.3123Z" fill="#00902A"/>
<path d="M109.495 0.119507H115.762V14.8814H125.703V19.3123H109.495V0.119507Z" fill="#00902A"/>
<path d="M133.302 19.3123H126.564L137.492 0.119507H139.489L150.417 19.3123H143.679L138.479 9.42893L133.302 19.3123Z" fill="#00902A"/>
<path d="M172.583 0.119507V19.2894H170.574L157.534 9.73886V19.3123H151.278V0.119507H153.275L166.315 9.88809V0.119507H172.583Z" fill="#00902A"/>
<path d="M191.317 19.3123L182.179 9.91105V19.3123H175.923V0.119507H182.179V9.00421L190.433 0.119507H197.71L189.136 9.42893L198.755 19.3123H191.317Z" fill="#00902A"/>
<path d="M205.975 19.3123H199.237L210.154 0.119507H212.163L223.091 19.3123H216.352L211.152 9.42893L205.975 19.3123Z" fill="#00902A"/>
<path d="M219.922 24.8337H217.696V24.0302H223.091V24.8337H220.852V30.5732H219.922V24.8337ZM212.633 24.8337V27.1295H215.905V27.933H212.633V30.5732H211.704V24.0302H216.295V24.8337H212.633ZM209.19 29.7352V30.5502H204.46V24.0302H209.052V24.8337H205.379V26.8425H208.65V27.6346H205.379V29.7352H209.19ZM201.533 23.9957V30.5158H200.776L196.861 25.6487V30.5158H195.954V24.0302H196.712L200.626 28.8858V24.0302L201.533 23.9957ZM191.11 30.6535C190.626 30.6587 190.145 30.581 189.687 30.424C189.29 30.3079 188.922 30.1083 188.608 29.8385L188.952 29.1154C189.237 29.3536 189.564 29.5366 189.917 29.6549C190.285 29.7885 190.673 29.8584 191.064 29.8615C191.485 29.8912 191.904 29.7953 192.27 29.586C192.394 29.5114 192.497 29.4052 192.568 29.2783C192.638 29.1513 192.674 29.008 192.671 28.8628C192.677 28.7607 192.66 28.6586 192.622 28.5635C192.585 28.4685 192.527 28.3826 192.453 28.3118C192.299 28.1671 192.115 28.0574 191.914 27.9904C191.696 27.9215 191.397 27.8297 191.007 27.7379C190.615 27.6503 190.232 27.5313 189.859 27.382C189.559 27.2692 189.29 27.0838 189.079 26.8425C188.85 26.5616 188.736 26.2052 188.757 25.8439C188.767 25.5102 188.875 25.1868 189.067 24.9141C189.278 24.6171 189.568 24.3862 189.905 24.2483C190.344 24.0651 190.818 23.9789 191.294 23.9957C191.682 23.9934 192.068 24.0436 192.442 24.145C192.781 24.2327 193.103 24.3763 193.395 24.5697L193.096 25.3158C192.821 25.1464 192.523 25.0151 192.212 24.9255C191.918 24.8359 191.613 24.7895 191.305 24.7878C190.903 24.766 190.503 24.866 190.158 25.0748C190.036 25.1576 189.937 25.269 189.869 25.3991C189.801 25.5292 189.766 25.6741 189.767 25.8209C189.763 25.9229 189.78 26.0248 189.817 26.1198C189.855 26.2147 189.912 26.3007 189.985 26.3719C190.146 26.5145 190.333 26.6238 190.536 26.6933C190.766 26.7737 191.064 26.854 191.443 26.9458C191.833 27.0355 192.216 27.1505 192.591 27.2902C192.885 27.4104 193.147 27.5947 193.36 27.8297C193.587 28.1071 193.701 28.4593 193.682 28.8169C193.684 29.1473 193.588 29.471 193.406 29.7467C193.192 30.0479 192.898 30.2826 192.557 30.424C192.095 30.5987 191.603 30.6768 191.11 30.6535ZM183.569 30.6535C183.197 30.6755 182.825 30.6206 182.475 30.4922C182.125 30.3638 181.806 30.1647 181.537 29.9074C181.281 29.617 181.086 29.2787 180.962 28.9123C180.837 28.5458 180.787 28.1583 180.814 27.7723V24.0302H181.743V27.692C181.743 29.0924 182.363 29.7926 183.58 29.7926C183.833 29.809 184.087 29.7714 184.324 29.6823C184.562 29.5933 184.778 29.4548 184.958 29.2761C185.306 28.8248 185.473 28.2601 185.428 27.692V24.0302H186.335V27.7379C186.362 28.1266 186.311 28.5169 186.185 28.8856C186.059 29.2542 185.86 29.5939 185.6 29.8844C185.333 30.1459 185.015 30.3492 184.665 30.4816C184.315 30.6139 183.942 30.6725 183.569 30.6535ZM175.648 27.8068C176.13 27.8389 176.608 27.7053 177.003 27.428C177.166 27.2874 177.292 27.1097 177.372 26.91C177.452 26.7102 177.483 26.4942 177.462 26.2801C177.476 26.075 177.442 25.8694 177.363 25.6799C177.283 25.4905 177.16 25.3225 177.003 25.1896C176.608 24.9122 176.13 24.7786 175.648 24.8108H174.064V27.7494L175.648 27.8068ZM177.496 30.5847L176.084 28.5758H175.671H174.064V30.5617H173.134V24.0302H175.671C176.387 23.9867 177.094 24.1982 177.668 24.6271C177.909 24.8324 178.1 25.0903 178.225 25.3809C178.351 25.6714 178.408 25.9869 178.392 26.303C178.419 26.757 178.292 27.2069 178.031 27.5797C177.771 27.9526 177.392 28.2268 176.957 28.3577L178.506 30.5502L177.496 30.5847ZM167.28 29.827C167.733 29.835 168.18 29.7242 168.577 29.5056C168.955 29.2939 169.266 28.9795 169.473 28.5988C169.7 28.2134 169.815 27.7721 169.805 27.3246C169.815 26.8736 169.7 26.4286 169.473 26.039C169.26 25.6658 168.95 25.3565 168.577 25.1436C168.181 24.9211 167.734 24.8063 167.28 24.8108C166.826 24.8079 166.379 24.9226 165.983 25.1436C165.603 25.3555 165.286 25.6645 165.065 26.039C164.846 26.4317 164.735 26.8752 164.743 27.3246C164.735 27.7704 164.846 28.2103 165.065 28.5988C165.282 28.9793 165.6 29.2929 165.983 29.5056C166.377 29.7074 166.815 29.8062 167.257 29.7926L167.28 29.827ZM167.28 30.6535C166.659 30.6659 166.046 30.5155 165.501 30.2173C164.989 29.9569 164.56 29.5595 164.261 29.0694C163.959 28.5459 163.8 27.9521 163.8 27.3476C163.8 26.7431 163.959 26.1493 164.261 25.6258C164.563 25.1383 164.992 24.7417 165.501 24.4779C166.048 24.1845 166.66 24.0345 167.28 24.0417C167.897 24.0349 168.505 24.185 169.048 24.4779C169.557 24.7417 169.985 25.1383 170.288 25.6258C170.59 26.1493 170.749 26.7431 170.749 27.3476C170.749 27.9521 170.59 28.5459 170.288 29.0694C169.986 29.5576 169.558 29.9545 169.048 30.2173C168.5 30.5195 167.882 30.6701 167.257 30.6535H167.28ZM157.959 24.0646H158.889V29.8041H162.424V30.6191H157.959V24.0646ZM155.48 29.8041V30.6191H150.75V24.0302H155.342V24.8337H151.669V26.8425H154.94V27.6346H151.669V29.7352L155.48 29.8041ZM145.803 29.8041C146.202 29.8213 146.599 29.73 146.951 29.5401C147.084 29.4516 147.191 29.3296 147.261 29.1865C147.332 29.0434 147.363 28.8843 147.353 28.7251C147.353 28.0019 146.825 27.5772 145.757 27.5772H143.61V29.7467L145.803 29.8041ZM143.656 24.7878V26.8655H145.573C145.974 26.8963 146.374 26.8042 146.721 26.6015C146.847 26.5155 146.95 26.3986 147.018 26.2619C147.086 26.1253 147.118 25.9735 147.112 25.8209C147.117 25.6685 147.085 25.517 147.016 25.3806C146.948 25.2441 146.847 25.1271 146.721 25.0403C146.374 24.8376 145.974 24.7455 145.573 24.7763L143.656 24.7878ZM147.1 27.1754C147.451 27.2611 147.763 27.4635 147.984 27.7494C148.21 28.0495 148.328 28.418 148.317 28.7939C148.328 29.0485 148.275 29.3019 148.163 29.5306C148.051 29.7594 147.883 29.9561 147.674 30.1025C147.115 30.441 146.467 30.6012 145.814 30.5617H142.704V24.0302H145.631C146.241 23.994 146.848 24.1506 147.364 24.4779C147.561 24.6148 147.719 24.7992 147.826 25.0139C147.932 25.2286 147.983 25.4667 147.972 25.7061C147.98 26.0216 147.897 26.3326 147.731 26.6015C147.589 26.8569 147.378 27.0676 147.123 27.2098L147.1 27.1754ZM133.199 28.3233V30.6191H132.269V28.3233L129.686 24.0761H130.685L132.763 27.5198L134.863 24.0761H135.782L133.199 28.3233ZM125.933 29.7926C126.333 29.8121 126.73 29.7208 127.081 29.5286C127.215 29.4418 127.324 29.3202 127.394 29.1767C127.465 29.0331 127.496 28.8731 127.483 28.7136C127.483 27.9904 126.954 27.5657 125.898 27.5657H123.752V29.7352L125.933 29.7926ZM123.786 24.7763V26.8655H125.692C126.092 26.8978 126.493 26.8056 126.84 26.6015C126.968 26.5171 127.071 26.4005 127.139 26.2635C127.208 26.1265 127.239 25.9738 127.23 25.8209C127.238 25.6681 127.206 25.5159 127.138 25.3791C127.069 25.2423 126.967 25.1255 126.84 25.0403C126.493 24.8362 126.092 24.744 125.692 24.7763H123.786ZM127.23 27.1639C127.583 27.2522 127.898 27.4538 128.125 27.7379C128.349 28.0391 128.462 28.4078 128.447 28.7825C128.461 29.0362 128.41 29.2892 128.3 29.5181C128.189 29.7469 128.023 29.944 127.815 30.0911C127.257 30.4296 126.608 30.5897 125.956 30.5502H122.845V24.0302H125.772C126.379 23.9932 126.982 24.15 127.494 24.4779C127.692 24.6133 127.852 24.7974 127.959 25.0125C128.065 25.2275 128.115 25.4664 128.102 25.7061C128.108 26.0198 128.029 26.3293 127.873 26.6015C127.72 26.8604 127.497 27.0712 127.23 27.2098V27.1639ZM111.86 29.7352C112.341 29.7454 112.817 29.6391 113.249 29.4253C113.633 29.2312 113.955 28.9329 114.178 28.5644C114.389 28.1707 114.5 27.7311 114.5 27.2845C114.5 26.8379 114.389 26.3982 114.178 26.0046C113.955 25.636 113.633 25.3377 113.249 25.1436C112.817 24.9298 112.341 24.8235 111.86 24.8337H110.092V29.7352H111.86ZM109.162 23.9957H111.917C112.553 23.9803 113.183 24.1181 113.754 24.3975C114.268 24.6544 114.698 25.0526 114.993 25.5454C115.296 26.0689 115.455 26.6628 115.455 27.2672C115.455 27.8717 115.296 28.4656 114.993 28.9891C114.696 29.4803 114.266 29.8781 113.754 30.137C113.183 30.4199 112.554 30.5617 111.917 30.5502H109.162V23.9957ZM106.694 29.7352V30.5502H101.953V24.0302H106.545V24.8337H102.872V26.8425H106.143V27.6346H102.872V29.7352H106.694ZM96.7304 27.7723C97.2121 27.8064 97.6908 27.6725 98.0849 27.3935C98.2478 27.2529 98.3746 27.0753 98.4545 26.8755C98.5344 26.6758 98.5651 26.4597 98.5441 26.2456C98.5586 26.0406 98.5246 25.835 98.4448 25.6455C98.365 25.456 98.2418 25.288 98.0849 25.1551C97.6908 24.8761 97.2121 24.7422 96.7304 24.7763H95.1463V27.7149L96.7304 27.7723ZM98.5785 30.5502L97.1666 28.5414H96.7649H95.1463V30.5273H94.2165V24.0302H96.7649C97.4765 23.9884 98.18 24.1999 98.7507 24.6271C98.993 24.8318 99.1851 25.0893 99.3125 25.3798C99.4398 25.6703 99.499 25.9861 99.4854 26.303C99.4972 26.7607 99.3646 27.2105 99.1066 27.5887C98.8425 27.948 98.4735 28.2167 98.0505 28.3577L99.5887 30.5502H98.5785ZM91.6912 29.7352V30.5502H86.9618V24.0302H91.5534V24.8337H87.8802V26.8425H91.1517V27.6346H87.9376V29.7352H91.6912ZM84.8612 23.9957L82.6802 30.5158H81.7045L80.0171 25.3388L78.1805 30.5502H77.1933L75.0123 24.0302H75.965L77.7213 29.322L79.5579 24.0302H80.4074L82.2096 29.3564L84.0118 24.0302L84.8612 23.9957ZM69.9386 29.7352C70.4176 29.7903 70.9026 29.7108 71.339 29.5056C71.7171 29.2939 72.0275 28.9795 72.2344 28.5988C72.462 28.2134 72.5773 27.7721 72.5673 27.3246C72.5728 26.8813 72.4577 26.4449 72.2344 26.062C72.0215 25.6887 71.7123 25.3795 71.339 25.1666C70.9432 24.944 70.4959 24.8292 70.0419 24.8337C69.588 24.8308 69.1411 24.9455 68.7448 25.1666C68.3648 25.3785 68.0479 25.6874 67.8264 26.062C67.6078 26.4547 67.4969 26.8982 67.505 27.3476C67.4967 27.7934 67.6077 28.2333 67.8264 28.6218C68.044 29.0022 68.3616 29.3159 68.7448 29.5286C69.1474 29.7263 69.594 29.8172 70.0419 29.7926L69.9386 29.7352ZM69.9386 30.5617C69.3176 30.5741 68.7042 30.4237 68.1593 30.1255C67.6478 29.8651 67.2186 29.4677 66.9196 28.9776C66.6174 28.4541 66.4582 27.8603 66.4582 27.2558C66.4582 26.6513 66.6174 26.0574 66.9196 25.5339C67.2218 25.0465 67.6501 24.6499 68.1593 24.386C68.7061 24.0927 69.3182 23.9426 69.9386 23.9498C70.5553 23.9431 71.1636 24.0932 71.7063 24.386C72.2155 24.6499 72.6439 25.0465 72.946 25.5339C73.2483 26.0574 73.4074 26.6513 73.4074 27.2558C73.4074 27.8603 73.2483 28.4541 72.946 28.9776C72.6448 29.4658 72.2162 29.8626 71.7063 30.1255C71.2048 30.4388 70.6323 30.6204 70.0419 30.6535L69.9386 30.5617ZM61.823 27.7034C62.3009 27.7358 62.7754 27.602 63.166 27.3246C63.3151 27.186 63.4341 27.0182 63.5155 26.8315C63.5968 26.6449 63.6388 26.4435 63.6388 26.2399C63.6388 26.0363 63.5968 25.8349 63.5155 25.6482C63.4341 25.4616 63.3151 25.2937 63.166 25.1551C62.7754 24.8778 62.3009 24.744 61.823 24.7763H60.3422V27.7034H61.823ZM61.823 23.9728C62.5384 23.9293 63.246 24.1408 63.8203 24.5697C64.0479 24.7843 64.2292 25.0432 64.3531 25.3304C64.477 25.6176 64.5409 25.9271 64.5409 26.2399C64.5409 26.5527 64.477 26.8622 64.3531 27.1494C64.2292 27.4366 64.0479 27.6955 63.8203 27.9101C63.2476 28.3431 62.5398 28.5587 61.823 28.5184H60.2159V30.4928H59.355V24.0302L61.823 23.9728Z" fill="#A3A3A7"/>
<path d="M18.6849 23.5021L3.62451 0.119507H12.5322C13.0787 0.121062 13.6161 0.259498 14.0953 0.522175C14.5745 0.784851 14.9803 1.1634 15.2756 1.62325L24.0456 15.2488L18.6849 23.5021Z" fill="url(#paint0_linear_964_15221)"/>
<path d="M23.2649 30.6535L18.6733 23.5366L32.758 1.62325C33.0533 1.1634 33.4591 0.784851 33.9383 0.522175C34.4176 0.259498 34.955 0.121062 35.5015 0.119507H44.4321L24.7687 30.6535H23.2649Z" fill="#00902A"/>
<path d="M47.531 30.6191L39.6909 18.4514L31.9082 30.6191H47.531Z" fill="#A3A3A7"/>
<path d="M16.1365 30.6191L8.2964 18.4514L0.513672 30.6191H16.1365Z" fill="#A3A3A7"/>
</g>
<defs>
<linearGradient id="paint0_linear_964_15221" x1="22.691" y1="20.4258" x2="15.6085" y2="10.6572" gradientUnits="userSpaceOnUse">
<stop stop-color="#5EB043"/>
<stop offset="1" stop-color="#79B957"/>
</linearGradient>
<clipPath id="clip0_964_15221">
<rect width="222.644" height="30.4996" fill="white" transform="translate(0.480469 0.119507)"/>
</clipPath>
</defs>
</svg>
