<svg width="70" height="60" viewBox="0 0 70 60" fill="none" xmlns="http://www.w3.org/2000/svg">
<path d="M30.6945 35.4941L31.1804 36.0112L31.6662 35.4942L46.8141 19.3732C47.5965 18.5405 48.8468 18.5405 49.6293 19.3733C50.434 20.2297 50.434 21.6342 49.6294 22.4905L32.588 40.6264C32.5879 40.6265 32.5879 40.6265 32.5879 40.6265C32.207 41.0317 31.6997 41.251 31.1804 41.251H31.1804H31.1803H31.1803H31.1803H31.1803H31.1803H31.1803H31.1803H31.1802H31.1802H31.1802C30.6608 41.251 30.1536 41.0317 29.7727 40.6263L20.9368 31.2224L20.9368 31.2223C20.1321 30.366 20.1321 28.9615 20.9368 28.1052C21.7192 27.2726 22.9697 27.2728 23.752 28.1053C23.752 28.1054 23.752 28.1054 23.752 28.1054L30.6945 35.4941Z" fill="#76D275" stroke="#FFF" stroke-width="1.33333"/>
<circle cx="35" cy="30" r="28.6667" stroke="#76D275" stroke-width="2.66667"/>
</svg>
